<?xml version="1.0" encoding="utf-8" standalone="no"?>
<!DOCTYPE svg PUBLIC "-//W3C//DTD SVG 1.1//EN"
  "http://www.w3.org/Graphics/SVG/1.1/DTD/svg11.dtd">
<svg xmlns:xlink="http://www.w3.org/1999/xlink" width="512.383135pt" height="368.39952pt" viewBox="0 0 512.383135 368.39952" xmlns="http://www.w3.org/2000/svg" version="1.1">
 <metadata>
  <rdf:RDF xmlns:dc="http://purl.org/dc/elements/1.1/" xmlns:cc="http://creativecommons.org/ns#" xmlns:rdf="http://www.w3.org/1999/02/22-rdf-syntax-ns#">
   <cc:Work>
    <dc:type rdf:resource="http://purl.org/dc/dcmitype/StillImage"/>
    <dc:date>2025-09-23T20:20:32.779937</dc:date>
    <dc:format>image/svg+xml</dc:format>
    <dc:creator>
     <cc:Agent>
      <dc:title>Matplotlib v3.5.2, https://matplotlib.org/</dc:title>
     </cc:Agent>
    </dc:creator>
   </cc:Work>
  </rdf:RDF>
 </metadata>
 <defs>
  <style type="text/css">*{stroke-linejoin: round; stroke-linecap: butt}</style>
 </defs>
 <g id="figure_1">
  <g id="patch_1">
   <path d="M 0 368.39952 
L 512.383135 368.39952 
L 512.383135 0 
L 0 0 
z
" style="fill: #ffffff"/>
  </g>
  <g id="axes_1">
   <g id="patch_2">
    <path d="M 86.974063 306.937332 
L 504.594584 306.937332 
L 504.594584 28.067187 
L 86.974063 28.067187 
z
" style="fill: #ffffff"/>
   </g>
   <g id="matplotlib.axis_1">
    <g id="xtick_1">
     <g id="line2d_1">
      <defs>
       <path id="m17688da659" d="M 0 0 
L 0 5 
" style="stroke: #000000; stroke-width: 0.8"/>
      </defs>
      <g>
       <use xlink:href="#m17688da659" x="99.716647" y="306.937332" style="stroke: #000000; stroke-width: 0.8"/>
      </g>
     </g>
     <g id="text_1">
      <!-- 0.01 -->
      <g transform="translate(80.466647 330.713582)scale(0.22 -0.22)">
       <defs>
        <path id="TimesNewRomanPSMT-30" d="M 231 2094 
Q 231 2819 450 3342 
Q 669 3866 1031 4122 
Q 1313 4325 1613 4325 
Q 2100 4325 2488 3828 
Q 2972 3213 2972 2159 
Q 2972 1422 2759 906 
Q 2547 391 2217 158 
Q 1888 -75 1581 -75 
Q 975 -75 572 641 
Q 231 1244 231 2094 
z
M 844 2016 
Q 844 1141 1059 588 
Q 1238 122 1591 122 
Q 1759 122 1940 273 
Q 2122 425 2216 781 
Q 2359 1319 2359 2297 
Q 2359 3022 2209 3506 
Q 2097 3866 1919 4016 
Q 1791 4119 1609 4119 
Q 1397 4119 1231 3928 
Q 1006 3669 925 3112 
Q 844 2556 844 2016 
z
" transform="scale(0.015625)"/>
        <path id="TimesNewRomanPSMT-2e" d="M 800 606 
Q 947 606 1047 504 
Q 1147 403 1147 259 
Q 1147 116 1045 14 
Q 944 -88 800 -88 
Q 656 -88 554 14 
Q 453 116 453 259 
Q 453 406 554 506 
Q 656 606 800 606 
z
" transform="scale(0.015625)"/>
        <path id="TimesNewRomanPSMT-31" d="M 750 3822 
L 1781 4325 
L 1884 4325 
L 1884 747 
Q 1884 391 1914 303 
Q 1944 216 2037 169 
Q 2131 122 2419 116 
L 2419 0 
L 825 0 
L 825 116 
Q 1125 122 1212 167 
Q 1300 213 1334 289 
Q 1369 366 1369 747 
L 1369 3034 
Q 1369 3497 1338 3628 
Q 1316 3728 1258 3775 
Q 1200 3822 1119 3822 
Q 1003 3822 797 3725 
L 750 3822 
z
" transform="scale(0.015625)"/>
       </defs>
       <use xlink:href="#TimesNewRomanPSMT-30"/>
       <use xlink:href="#TimesNewRomanPSMT-2e" x="50"/>
       <use xlink:href="#TimesNewRomanPSMT-30" x="75"/>
       <use xlink:href="#TimesNewRomanPSMT-31" x="125"/>
      </g>
     </g>
    </g>
    <g id="xtick_2">
     <g id="line2d_2">
      <g>
       <use xlink:href="#m17688da659" x="231.205476" y="306.937332" style="stroke: #000000; stroke-width: 0.8"/>
      </g>
     </g>
     <g id="text_2">
      <!-- 0.10 -->
      <g transform="translate(211.955476 330.713582)scale(0.22 -0.22)">
       <use xlink:href="#TimesNewRomanPSMT-30"/>
       <use xlink:href="#TimesNewRomanPSMT-2e" x="50"/>
       <use xlink:href="#TimesNewRomanPSMT-31" x="75"/>
       <use xlink:href="#TimesNewRomanPSMT-30" x="125"/>
      </g>
     </g>
    </g>
    <g id="xtick_3">
     <g id="line2d_3">
      <g>
       <use xlink:href="#m17688da659" x="362.694305" y="306.937332" style="stroke: #000000; stroke-width: 0.8"/>
      </g>
     </g>
     <g id="text_3">
      <!-- 1 -->
      <g transform="translate(357.194305 330.713582)scale(0.22 -0.22)">
       <use xlink:href="#TimesNewRomanPSMT-31"/>
      </g>
     </g>
    </g>
    <g id="xtick_4">
     <g id="line2d_4">
      <g>
       <use xlink:href="#m17688da659" x="494.183135" y="306.937332" style="stroke: #000000; stroke-width: 0.8"/>
      </g>
     </g>
     <g id="text_4">
      <!-- 10 -->
      <g transform="translate(483.183135 330.713582)scale(0.22 -0.22)">
       <use xlink:href="#TimesNewRomanPSMT-31"/>
       <use xlink:href="#TimesNewRomanPSMT-30" x="50"/>
      </g>
     </g>
    </g>
    <g id="xtick_5">
     <g id="line2d_5">
      <defs>
       <path id="mc29c24b3b5" d="M 0 0 
L 0 3 
" style="stroke: #000000; stroke-width: 0.6"/>
      </defs>
      <g>
       <use xlink:href="#mc29c24b3b5" x="86.974063" y="306.937332" style="stroke: #000000; stroke-width: 0.6"/>
      </g>
     </g>
    </g>
    <g id="xtick_6">
     <g id="line2d_6">
      <g>
       <use xlink:href="#mc29c24b3b5" x="93.700048" y="306.937332" style="stroke: #000000; stroke-width: 0.6"/>
      </g>
     </g>
    </g>
    <g id="xtick_7">
     <g id="line2d_7">
      <g>
       <use xlink:href="#mc29c24b3b5" x="139.298728" y="306.937332" style="stroke: #000000; stroke-width: 0.6"/>
      </g>
     </g>
    </g>
    <g id="xtick_8">
     <g id="line2d_8">
      <g>
       <use xlink:href="#mc29c24b3b5" x="162.452762" y="306.937332" style="stroke: #000000; stroke-width: 0.6"/>
      </g>
     </g>
    </g>
    <g id="xtick_9">
     <g id="line2d_9">
      <g>
       <use xlink:href="#mc29c24b3b5" x="178.88081" y="306.937332" style="stroke: #000000; stroke-width: 0.6"/>
      </g>
     </g>
    </g>
    <g id="xtick_10">
     <g id="line2d_10">
      <g>
       <use xlink:href="#mc29c24b3b5" x="191.623394" y="306.937332" style="stroke: #000000; stroke-width: 0.6"/>
      </g>
     </g>
    </g>
    <g id="xtick_11">
     <g id="line2d_11">
      <g>
       <use xlink:href="#mc29c24b3b5" x="202.034844" y="306.937332" style="stroke: #000000; stroke-width: 0.6"/>
      </g>
     </g>
    </g>
    <g id="xtick_12">
     <g id="line2d_12">
      <g>
       <use xlink:href="#mc29c24b3b5" x="210.837599" y="306.937332" style="stroke: #000000; stroke-width: 0.6"/>
      </g>
     </g>
    </g>
    <g id="xtick_13">
     <g id="line2d_13">
      <g>
       <use xlink:href="#mc29c24b3b5" x="218.462892" y="306.937332" style="stroke: #000000; stroke-width: 0.6"/>
      </g>
     </g>
    </g>
    <g id="xtick_14">
     <g id="line2d_14">
      <g>
       <use xlink:href="#mc29c24b3b5" x="225.188877" y="306.937332" style="stroke: #000000; stroke-width: 0.6"/>
      </g>
     </g>
    </g>
    <g id="xtick_15">
     <g id="line2d_15">
      <g>
       <use xlink:href="#mc29c24b3b5" x="270.787558" y="306.937332" style="stroke: #000000; stroke-width: 0.6"/>
      </g>
     </g>
    </g>
    <g id="xtick_16">
     <g id="line2d_16">
      <g>
       <use xlink:href="#mc29c24b3b5" x="293.941591" y="306.937332" style="stroke: #000000; stroke-width: 0.6"/>
      </g>
     </g>
    </g>
    <g id="xtick_17">
     <g id="line2d_17">
      <g>
       <use xlink:href="#mc29c24b3b5" x="310.369639" y="306.937332" style="stroke: #000000; stroke-width: 0.6"/>
      </g>
     </g>
    </g>
    <g id="xtick_18">
     <g id="line2d_18">
      <g>
       <use xlink:href="#mc29c24b3b5" x="323.112224" y="306.937332" style="stroke: #000000; stroke-width: 0.6"/>
      </g>
     </g>
    </g>
    <g id="xtick_19">
     <g id="line2d_19">
      <g>
       <use xlink:href="#mc29c24b3b5" x="333.523673" y="306.937332" style="stroke: #000000; stroke-width: 0.6"/>
      </g>
     </g>
    </g>
    <g id="xtick_20">
     <g id="line2d_20">
      <g>
       <use xlink:href="#mc29c24b3b5" x="342.326428" y="306.937332" style="stroke: #000000; stroke-width: 0.6"/>
      </g>
     </g>
    </g>
    <g id="xtick_21">
     <g id="line2d_21">
      <g>
       <use xlink:href="#mc29c24b3b5" x="349.951721" y="306.937332" style="stroke: #000000; stroke-width: 0.6"/>
      </g>
     </g>
    </g>
    <g id="xtick_22">
     <g id="line2d_22">
      <g>
       <use xlink:href="#mc29c24b3b5" x="356.677706" y="306.937332" style="stroke: #000000; stroke-width: 0.6"/>
      </g>
     </g>
    </g>
    <g id="xtick_23">
     <g id="line2d_23">
      <g>
       <use xlink:href="#mc29c24b3b5" x="402.276387" y="306.937332" style="stroke: #000000; stroke-width: 0.6"/>
      </g>
     </g>
    </g>
    <g id="xtick_24">
     <g id="line2d_24">
      <g>
       <use xlink:href="#mc29c24b3b5" x="425.43042" y="306.937332" style="stroke: #000000; stroke-width: 0.6"/>
      </g>
     </g>
    </g>
    <g id="xtick_25">
     <g id="line2d_25">
      <g>
       <use xlink:href="#mc29c24b3b5" x="441.858469" y="306.937332" style="stroke: #000000; stroke-width: 0.6"/>
      </g>
     </g>
    </g>
    <g id="xtick_26">
     <g id="line2d_26">
      <g>
       <use xlink:href="#mc29c24b3b5" x="454.601053" y="306.937332" style="stroke: #000000; stroke-width: 0.6"/>
      </g>
     </g>
    </g>
    <g id="xtick_27">
     <g id="line2d_27">
      <g>
       <use xlink:href="#mc29c24b3b5" x="465.012502" y="306.937332" style="stroke: #000000; stroke-width: 0.6"/>
      </g>
     </g>
    </g>
    <g id="xtick_28">
     <g id="line2d_28">
      <g>
       <use xlink:href="#mc29c24b3b5" x="473.815257" y="306.937332" style="stroke: #000000; stroke-width: 0.6"/>
      </g>
     </g>
    </g>
    <g id="xtick_29">
     <g id="line2d_29">
      <g>
       <use xlink:href="#mc29c24b3b5" x="481.44055" y="306.937332" style="stroke: #000000; stroke-width: 0.6"/>
      </g>
     </g>
    </g>
    <g id="xtick_30">
     <g id="line2d_30">
      <g>
       <use xlink:href="#mc29c24b3b5" x="488.166536" y="306.937332" style="stroke: #000000; stroke-width: 0.6"/>
      </g>
     </g>
    </g>
    <g id="text_5">
     <!-- Temperature $\beta$ -->
     <g transform="translate(223.624323 356.35952)scale(0.22 -0.22)">
      <defs>
       <path id="TimesNewRomanPS-BoldMT-54" d="M 4038 4238 
L 4038 3091 
L 3925 3091 
Q 3825 3488 3703 3661 
Q 3581 3834 3369 3938 
Q 3250 3994 2953 3994 
L 2638 3994 
L 2638 725 
Q 2638 400 2673 319 
Q 2709 238 2814 177 
Q 2919 116 3100 116 
L 3241 116 
L 3241 0 
L 1022 0 
L 1022 116 
L 1163 116 
Q 1347 116 1459 181 
Q 1541 225 1588 331 
Q 1622 406 1622 725 
L 1622 3994 
L 1316 3994 
Q 888 3994 694 3813 
Q 422 3559 350 3091 
L 231 3091 
L 231 4238 
L 4038 4238 
z
" transform="scale(0.015625)"/>
       <path id="TimesNewRomanPS-BoldMT-65" d="M 2691 1566 
L 1088 1566 
Q 1116 984 1397 647 
Q 1613 388 1916 388 
Q 2103 388 2256 492 
Q 2409 597 2584 869 
L 2691 800 
Q 2453 316 2165 114 
Q 1878 -88 1500 -88 
Q 850 -88 516 413 
Q 247 816 247 1413 
Q 247 2144 642 2576 
Q 1038 3009 1569 3009 
Q 2013 3009 2339 2645 
Q 2666 2281 2691 1566 
z
M 1922 1775 
Q 1922 2278 1867 2465 
Q 1813 2653 1697 2750 
Q 1631 2806 1522 2806 
Q 1359 2806 1256 2647 
Q 1072 2369 1072 1884 
L 1072 1775 
L 1922 1775 
z
" transform="scale(0.015625)"/>
       <path id="TimesNewRomanPS-BoldMT-6d" d="M 1428 2922 
L 1428 2538 
Q 1669 2800 1873 2904 
Q 2078 3009 2322 3009 
Q 2603 3009 2793 2878 
Q 2984 2747 3088 2478 
Q 3338 2759 3567 2884 
Q 3797 3009 4047 3009 
Q 4350 3009 4529 2870 
Q 4709 2731 4779 2517 
Q 4850 2303 4850 1834 
L 4850 638 
Q 4850 300 4911 219 
Q 4972 138 5166 113 
L 5166 0 
L 3656 0 
L 3656 113 
Q 3834 128 3919 250 
Q 3975 334 3975 638 
L 3975 1894 
Q 3975 2284 3944 2390 
Q 3913 2497 3845 2548 
Q 3778 2600 3688 2600 
Q 3553 2600 3415 2501 
Q 3278 2403 3138 2206 
L 3138 638 
Q 3138 322 3191 241 
Q 3263 125 3466 113 
L 3466 0 
L 1953 0 
L 1953 113 
Q 2075 119 2145 173 
Q 2216 228 2239 304 
Q 2263 381 2263 638 
L 2263 1894 
Q 2263 2291 2231 2391 
Q 2200 2491 2126 2547 
Q 2053 2603 1969 2603 
Q 1844 2603 1741 2538 
Q 1594 2441 1428 2206 
L 1428 638 
Q 1428 328 1489 229 
Q 1550 131 1744 113 
L 1744 0 
L 238 0 
L 238 113 
Q 422 131 500 231 
Q 553 300 553 638 
L 553 2288 
Q 553 2619 492 2700 
Q 431 2781 238 2806 
L 238 2922 
L 1428 2922 
z
" transform="scale(0.015625)"/>
       <path id="TimesNewRomanPS-BoldMT-70" d="M 1347 297 
L 1347 -791 
Q 1347 -1016 1383 -1097 
Q 1419 -1178 1494 -1215 
Q 1569 -1253 1788 -1253 
L 1788 -1369 
L 122 -1369 
L 122 -1253 
Q 316 -1247 409 -1144 
Q 472 -1072 472 -772 
L 472 2313 
Q 472 2622 400 2708 
Q 328 2794 122 2806 
L 122 2922 
L 1347 2922 
L 1347 2538 
Q 1500 2763 1659 2863 
Q 1888 3009 2156 3009 
Q 2478 3009 2742 2806 
Q 3006 2603 3143 2245 
Q 3281 1888 3281 1475 
Q 3281 1031 3139 664 
Q 2997 297 2726 104 
Q 2456 -88 2125 -88 
Q 1884 -88 1675 19 
Q 1519 100 1347 297 
z
M 1347 613 
Q 1616 231 1922 231 
Q 2091 231 2200 409 
Q 2363 672 2363 1409 
Q 2363 2166 2184 2444 
Q 2066 2628 1866 2628 
Q 1550 2628 1347 2172 
L 1347 613 
z
" transform="scale(0.015625)"/>
       <path id="TimesNewRomanPS-BoldMT-72" d="M 1428 2922 
L 1428 2259 
Q 1719 2713 1937 2861 
Q 2156 3009 2359 3009 
Q 2534 3009 2639 2901 
Q 2744 2794 2744 2597 
Q 2744 2388 2642 2272 
Q 2541 2156 2397 2156 
Q 2231 2156 2109 2262 
Q 1988 2369 1966 2381 
Q 1934 2400 1894 2400 
Q 1803 2400 1722 2331 
Q 1594 2225 1528 2028 
Q 1428 1725 1428 1359 
L 1428 688 
L 1431 513 
Q 1431 334 1453 284 
Q 1491 200 1564 161 
Q 1638 122 1813 113 
L 1813 0 
L 234 0 
L 234 113 
Q 425 128 492 217 
Q 559 306 559 688 
L 559 2303 
Q 559 2553 534 2622 
Q 503 2709 443 2750 
Q 384 2791 234 2806 
L 234 2922 
L 1428 2922 
z
" transform="scale(0.015625)"/>
       <path id="TimesNewRomanPS-BoldMT-61" d="M 1828 431 
Q 1294 -41 869 -41 
Q 619 -41 453 123 
Q 288 288 288 534 
Q 288 869 575 1136 
Q 863 1403 1828 1847 
L 1828 2141 
Q 1828 2472 1792 2558 
Q 1756 2644 1656 2708 
Q 1556 2772 1431 2772 
Q 1228 2772 1097 2681 
Q 1016 2625 1016 2550 
Q 1016 2484 1103 2388 
Q 1222 2253 1222 2128 
Q 1222 1975 1108 1867 
Q 994 1759 809 1759 
Q 613 1759 480 1878 
Q 347 1997 347 2156 
Q 347 2381 525 2586 
Q 703 2791 1022 2900 
Q 1341 3009 1684 3009 
Q 2100 3009 2342 2832 
Q 2584 2656 2656 2450 
Q 2700 2319 2700 1847 
L 2700 713 
Q 2700 513 2715 461 
Q 2731 409 2762 384 
Q 2794 359 2834 359 
Q 2916 359 3000 475 
L 3094 400 
Q 2938 169 2770 64 
Q 2603 -41 2391 -41 
Q 2141 -41 2000 76 
Q 1859 194 1828 431 
z
M 1828 659 
L 1828 1638 
Q 1450 1416 1266 1163 
Q 1144 994 1144 822 
Q 1144 678 1247 569 
Q 1325 484 1466 484 
Q 1622 484 1828 659 
z
" transform="scale(0.015625)"/>
       <path id="TimesNewRomanPS-BoldMT-74" d="M 1375 3991 
L 1375 2922 
L 2069 2922 
L 2069 2613 
L 1375 2613 
L 1375 809 
Q 1375 556 1398 482 
Q 1422 409 1481 364 
Q 1541 319 1591 319 
Q 1794 319 1975 628 
L 2069 559 
Q 1816 -41 1247 -41 
Q 969 -41 776 114 
Q 584 269 531 459 
Q 500 566 500 1034 
L 500 2613 
L 119 2613 
L 119 2722 
Q 513 3000 789 3306 
Q 1066 3613 1272 3991 
L 1375 3991 
z
" transform="scale(0.015625)"/>
       <path id="TimesNewRomanPS-BoldMT-75" d="M 3038 2922 
L 3038 634 
Q 3038 300 3100 217 
Q 3163 134 3353 113 
L 3353 0 
L 2163 0 
L 2163 391 
Q 1953 141 1743 26 
Q 1534 -88 1275 -88 
Q 1028 -88 836 64 
Q 644 216 578 419 
Q 513 622 513 1128 
L 513 2288 
Q 513 2619 452 2700 
Q 391 2781 197 2806 
L 197 2922 
L 1388 2922 
L 1388 925 
Q 1388 613 1417 522 
Q 1447 431 1511 384 
Q 1575 338 1659 338 
Q 1772 338 1863 397 
Q 1988 478 2163 725 
L 2163 2288 
Q 2163 2619 2102 2700 
Q 2041 2781 1847 2806 
L 1847 2922 
L 3038 2922 
z
" transform="scale(0.015625)"/>
       <path id="TimesNewRomanPS-BoldMT-20" transform="scale(0.015625)"/>
       <path id="DejaVuSans-Oblique-3b2" d="M 872 216 
L 572 -1331 
L -6 -1331 
L 928 3478 
Q 1206 4903 2538 4903 
Q 3888 4903 3659 3700 
Q 3503 2844 2894 2531 
Q 3713 2250 3553 1416 
Q 3272 -69 1759 -66 
Q 1097 -63 872 216 
z
M 1019 966 
Q 1259 422 1875 425 
Q 2775 425 2966 1406 
Q 3138 2288 1675 2219 
L 1778 2750 
Q 2909 2731 3106 3750 
Q 3241 4438 2509 4434 
Q 1691 4434 1503 3459 
L 1019 966 
z
" transform="scale(0.015625)"/>
      </defs>
      <use xlink:href="#TimesNewRomanPS-BoldMT-54" transform="translate(0 0.390625)"/>
      <use xlink:href="#TimesNewRomanPS-BoldMT-65" transform="translate(66.699219 0.390625)"/>
      <use xlink:href="#TimesNewRomanPS-BoldMT-6d" transform="translate(111.083984 0.390625)"/>
      <use xlink:href="#TimesNewRomanPS-BoldMT-70" transform="translate(194.384766 0.390625)"/>
      <use xlink:href="#TimesNewRomanPS-BoldMT-65" transform="translate(250 0.390625)"/>
      <use xlink:href="#TimesNewRomanPS-BoldMT-72" transform="translate(294.384766 0.390625)"/>
      <use xlink:href="#TimesNewRomanPS-BoldMT-61" transform="translate(338.769531 0.390625)"/>
      <use xlink:href="#TimesNewRomanPS-BoldMT-74" transform="translate(388.769531 0.390625)"/>
      <use xlink:href="#TimesNewRomanPS-BoldMT-75" transform="translate(422.070312 0.390625)"/>
      <use xlink:href="#TimesNewRomanPS-BoldMT-72" transform="translate(477.685547 0.390625)"/>
      <use xlink:href="#TimesNewRomanPS-BoldMT-65" transform="translate(522.070312 0.390625)"/>
      <use xlink:href="#TimesNewRomanPS-BoldMT-20" transform="translate(566.455078 0.390625)"/>
      <use xlink:href="#DejaVuSans-Oblique-3b2" transform="translate(591.455078 0.390625)"/>
     </g>
    </g>
   </g>
   <g id="matplotlib.axis_2">
    <g id="ytick_1">
     <g id="line2d_31">
      <path d="M 86.974063 306.937332 
L 504.594584 306.937332 
" clip-path="url(#pca3fb22539)" style="fill: none; stroke: #b0b0b0; stroke-opacity: 0.3; stroke-width: 0.5; stroke-linecap: square"/>
     </g>
     <g id="line2d_32">
      <defs>
       <path id="m134963130b" d="M 0 0 
L -3.5 0 
" style="stroke: #000000; stroke-width: 0.8"/>
      </defs>
      <g>
       <use xlink:href="#m134963130b" x="86.974063" y="306.937332" style="stroke: #000000; stroke-width: 0.8"/>
      </g>
     </g>
     <g id="text_6">
      <!-- 0.645 -->
      <g transform="translate(30.474063 314.575457)scale(0.22 -0.22)">
       <defs>
        <path id="TimesNewRomanPSMT-36" d="M 2869 4325 
L 2869 4209 
Q 2456 4169 2195 4045 
Q 1934 3922 1679 3669 
Q 1425 3416 1258 3105 
Q 1091 2794 978 2366 
Q 1428 2675 1881 2675 
Q 2316 2675 2634 2325 
Q 2953 1975 2953 1425 
Q 2953 894 2631 456 
Q 2244 -75 1606 -75 
Q 1172 -75 869 213 
Q 275 772 275 1663 
Q 275 2231 503 2743 
Q 731 3256 1154 3653 
Q 1578 4050 1965 4187 
Q 2353 4325 2688 4325 
L 2869 4325 
z
M 925 2138 
Q 869 1716 869 1456 
Q 869 1156 980 804 
Q 1091 453 1309 247 
Q 1469 100 1697 100 
Q 1969 100 2183 356 
Q 2397 613 2397 1088 
Q 2397 1622 2184 2012 
Q 1972 2403 1581 2403 
Q 1463 2403 1327 2353 
Q 1191 2303 925 2138 
z
" transform="scale(0.015625)"/>
        <path id="TimesNewRomanPSMT-34" d="M 2978 1563 
L 2978 1119 
L 2409 1119 
L 2409 0 
L 1894 0 
L 1894 1119 
L 100 1119 
L 100 1519 
L 2066 4325 
L 2409 4325 
L 2409 1563 
L 2978 1563 
z
M 1894 1563 
L 1894 3666 
L 406 1563 
L 1894 1563 
z
" transform="scale(0.015625)"/>
        <path id="TimesNewRomanPSMT-35" d="M 2778 4238 
L 2534 3706 
L 1259 3706 
L 981 3138 
Q 1809 3016 2294 2522 
Q 2709 2097 2709 1522 
Q 2709 1188 2573 903 
Q 2438 619 2231 419 
Q 2025 219 1772 97 
Q 1413 -75 1034 -75 
Q 653 -75 479 54 
Q 306 184 306 341 
Q 306 428 378 495 
Q 450 563 559 563 
Q 641 563 702 538 
Q 763 513 909 409 
Q 1144 247 1384 247 
Q 1750 247 2026 523 
Q 2303 800 2303 1197 
Q 2303 1581 2056 1914 
Q 1809 2247 1375 2428 
Q 1034 2569 447 2591 
L 1259 4238 
L 2778 4238 
z
" transform="scale(0.015625)"/>
       </defs>
       <use xlink:href="#TimesNewRomanPSMT-30"/>
       <use xlink:href="#TimesNewRomanPSMT-2e" x="50"/>
       <use xlink:href="#TimesNewRomanPSMT-36" x="75"/>
       <use xlink:href="#TimesNewRomanPSMT-34" x="125"/>
       <use xlink:href="#TimesNewRomanPSMT-35" x="175"/>
      </g>
     </g>
    </g>
    <g id="ytick_2">
     <g id="line2d_33">
      <path d="M 86.974063 237.219796 
L 504.594584 237.219796 
" clip-path="url(#pca3fb22539)" style="fill: none; stroke: #b0b0b0; stroke-opacity: 0.3; stroke-width: 0.5; stroke-linecap: square"/>
     </g>
     <g id="line2d_34">
      <g>
       <use xlink:href="#m134963130b" x="86.974063" y="237.219796" style="stroke: #000000; stroke-width: 0.8"/>
      </g>
     </g>
     <g id="text_7">
      <!-- 0.654 -->
      <g transform="translate(30.474063 244.857921)scale(0.22 -0.22)">
       <use xlink:href="#TimesNewRomanPSMT-30"/>
       <use xlink:href="#TimesNewRomanPSMT-2e" x="50"/>
       <use xlink:href="#TimesNewRomanPSMT-36" x="75"/>
       <use xlink:href="#TimesNewRomanPSMT-35" x="125"/>
       <use xlink:href="#TimesNewRomanPSMT-34" x="175"/>
      </g>
     </g>
    </g>
    <g id="ytick_3">
     <g id="line2d_35">
      <path d="M 86.974063 167.50226 
L 504.594584 167.50226 
" clip-path="url(#pca3fb22539)" style="fill: none; stroke: #b0b0b0; stroke-opacity: 0.3; stroke-width: 0.5; stroke-linecap: square"/>
     </g>
     <g id="line2d_36">
      <g>
       <use xlink:href="#m134963130b" x="86.974063" y="167.50226" style="stroke: #000000; stroke-width: 0.8"/>
      </g>
     </g>
     <g id="text_8">
      <!-- 0.664 -->
      <g transform="translate(30.474063 175.140385)scale(0.22 -0.22)">
       <use xlink:href="#TimesNewRomanPSMT-30"/>
       <use xlink:href="#TimesNewRomanPSMT-2e" x="50"/>
       <use xlink:href="#TimesNewRomanPSMT-36" x="75"/>
       <use xlink:href="#TimesNewRomanPSMT-36" x="125"/>
       <use xlink:href="#TimesNewRomanPSMT-34" x="175"/>
      </g>
     </g>
    </g>
    <g id="ytick_4">
     <g id="line2d_37">
      <path d="M 86.974063 97.784724 
L 504.594584 97.784724 
" clip-path="url(#pca3fb22539)" style="fill: none; stroke: #b0b0b0; stroke-opacity: 0.3; stroke-width: 0.5; stroke-linecap: square"/>
     </g>
     <g id="line2d_38">
      <g>
       <use xlink:href="#m134963130b" x="86.974063" y="97.784724" style="stroke: #000000; stroke-width: 0.8"/>
      </g>
     </g>
     <g id="text_9">
      <!-- 0.673 -->
      <g transform="translate(30.474063 105.422849)scale(0.22 -0.22)">
       <defs>
        <path id="TimesNewRomanPSMT-37" d="M 644 4238 
L 2916 4238 
L 2916 4119 
L 1503 -88 
L 1153 -88 
L 2419 3728 
L 1253 3728 
Q 900 3728 750 3644 
Q 488 3500 328 3200 
L 238 3234 
L 644 4238 
z
" transform="scale(0.015625)"/>
        <path id="TimesNewRomanPSMT-33" d="M 325 3431 
Q 506 3859 782 4092 
Q 1059 4325 1472 4325 
Q 1981 4325 2253 3994 
Q 2459 3747 2459 3466 
Q 2459 3003 1878 2509 
Q 2269 2356 2469 2072 
Q 2669 1788 2669 1403 
Q 2669 853 2319 450 
Q 1863 -75 997 -75 
Q 569 -75 414 31 
Q 259 138 259 259 
Q 259 350 332 419 
Q 406 488 509 488 
Q 588 488 669 463 
Q 722 447 909 348 
Q 1097 250 1169 231 
Q 1284 197 1416 197 
Q 1734 197 1970 444 
Q 2206 691 2206 1028 
Q 2206 1275 2097 1509 
Q 2016 1684 1919 1775 
Q 1784 1900 1550 2001 
Q 1316 2103 1072 2103 
L 972 2103 
L 972 2197 
Q 1219 2228 1467 2375 
Q 1716 2522 1828 2728 
Q 1941 2934 1941 3181 
Q 1941 3503 1739 3701 
Q 1538 3900 1238 3900 
Q 753 3900 428 3381 
L 325 3431 
z
" transform="scale(0.015625)"/>
       </defs>
       <use xlink:href="#TimesNewRomanPSMT-30"/>
       <use xlink:href="#TimesNewRomanPSMT-2e" x="50"/>
       <use xlink:href="#TimesNewRomanPSMT-36" x="75"/>
       <use xlink:href="#TimesNewRomanPSMT-37" x="125"/>
       <use xlink:href="#TimesNewRomanPSMT-33" x="175"/>
      </g>
     </g>
    </g>
    <g id="ytick_5">
     <g id="line2d_39">
      <path d="M 86.974063 28.067187 
L 504.594584 28.067187 
" clip-path="url(#pca3fb22539)" style="fill: none; stroke: #b0b0b0; stroke-opacity: 0.3; stroke-width: 0.5; stroke-linecap: square"/>
     </g>
     <g id="line2d_40">
      <g>
       <use xlink:href="#m134963130b" x="86.974063" y="28.067187" style="stroke: #000000; stroke-width: 0.8"/>
      </g>
     </g>
     <g id="text_10">
      <!-- 0.682 -->
      <g transform="translate(30.474063 35.705312)scale(0.22 -0.22)">
       <defs>
        <path id="TimesNewRomanPSMT-38" d="M 1228 2134 
Q 725 2547 579 2797 
Q 434 3047 434 3316 
Q 434 3728 753 4026 
Q 1072 4325 1600 4325 
Q 2113 4325 2425 4047 
Q 2738 3769 2738 3413 
Q 2738 3175 2569 2928 
Q 2400 2681 1866 2347 
Q 2416 1922 2594 1678 
Q 2831 1359 2831 1006 
Q 2831 559 2490 242 
Q 2150 -75 1597 -75 
Q 994 -75 656 303 
Q 388 606 388 966 
Q 388 1247 577 1523 
Q 766 1800 1228 2134 
z
M 1719 2469 
Q 2094 2806 2194 3001 
Q 2294 3197 2294 3444 
Q 2294 3772 2109 3958 
Q 1925 4144 1606 4144 
Q 1288 4144 1088 3959 
Q 888 3775 888 3528 
Q 888 3366 970 3203 
Q 1053 3041 1206 2894 
L 1719 2469 
z
M 1375 2016 
Q 1116 1797 991 1539 
Q 866 1281 866 981 
Q 866 578 1086 336 
Q 1306 94 1647 94 
Q 1984 94 2187 284 
Q 2391 475 2391 747 
Q 2391 972 2272 1150 
Q 2050 1481 1375 2016 
z
" transform="scale(0.015625)"/>
        <path id="TimesNewRomanPSMT-32" d="M 2934 816 
L 2638 0 
L 138 0 
L 138 116 
Q 1241 1122 1691 1759 
Q 2141 2397 2141 2925 
Q 2141 3328 1894 3587 
Q 1647 3847 1303 3847 
Q 991 3847 742 3664 
Q 494 3481 375 3128 
L 259 3128 
Q 338 3706 661 4015 
Q 984 4325 1469 4325 
Q 1984 4325 2329 3994 
Q 2675 3663 2675 3213 
Q 2675 2891 2525 2569 
Q 2294 2063 1775 1497 
Q 997 647 803 472 
L 1909 472 
Q 2247 472 2383 497 
Q 2519 522 2628 598 
Q 2738 675 2819 816 
L 2934 816 
z
" transform="scale(0.015625)"/>
       </defs>
       <use xlink:href="#TimesNewRomanPSMT-30"/>
       <use xlink:href="#TimesNewRomanPSMT-2e" x="50"/>
       <use xlink:href="#TimesNewRomanPSMT-36" x="75"/>
       <use xlink:href="#TimesNewRomanPSMT-38" x="125"/>
       <use xlink:href="#TimesNewRomanPSMT-32" x="175"/>
      </g>
     </g>
    </g>
    <g id="text_11">
     <!-- Test AUC -->
     <g transform="translate(21.768125 212.640072)rotate(-90)scale(0.22 -0.22)">
      <defs>
       <path id="TimesNewRomanPS-BoldMT-73" d="M 2063 3003 
L 2109 2006 
L 2003 2006 
Q 1813 2450 1608 2612 
Q 1403 2775 1200 2775 
Q 1072 2775 981 2689 
Q 891 2603 891 2491 
Q 891 2406 953 2328 
Q 1053 2200 1512 1889 
Q 1972 1578 2117 1361 
Q 2263 1144 2263 875 
Q 2263 631 2141 397 
Q 2019 163 1797 37 
Q 1575 -88 1306 -88 
Q 1097 -88 747 44 
Q 653 78 619 78 
Q 516 78 447 -78 
L 344 -78 
L 294 972 
L 400 972 
Q 541 559 786 353 
Q 1031 147 1250 147 
Q 1400 147 1495 239 
Q 1591 331 1591 463 
Q 1591 613 1497 722 
Q 1403 831 1078 1053 
Q 600 1384 459 1559 
Q 253 1816 253 2125 
Q 253 2463 486 2736 
Q 719 3009 1159 3009 
Q 1397 3009 1619 2894 
Q 1703 2847 1756 2847 
Q 1813 2847 1847 2870 
Q 1881 2894 1956 3003 
L 2063 3003 
z
" transform="scale(0.015625)"/>
       <path id="TimesNewRomanPS-BoldMT-41" d="M 2663 1206 
L 1166 1206 
L 988 794 
Q 900 588 900 453 
Q 900 275 1044 191 
Q 1128 141 1459 116 
L 1459 0 
L 50 0 
L 50 116 
Q 278 150 425 304 
Q 572 459 788 944 
L 2303 4325 
L 2363 4325 
L 3891 850 
Q 4109 356 4250 228 
Q 4356 131 4550 116 
L 4550 0 
L 2500 0 
L 2500 116 
L 2584 116 
Q 2831 116 2931 184 
Q 3000 234 3000 328 
Q 3000 384 2981 444 
Q 2975 472 2888 678 
L 2663 1206 
z
M 2556 1438 
L 1925 2897 
L 1275 1438 
L 2556 1438 
z
" transform="scale(0.015625)"/>
       <path id="TimesNewRomanPS-BoldMT-55" d="M 150 4238 
L 2338 4238 
L 2338 4122 
L 2228 4122 
Q 1981 4122 1889 4070 
Q 1797 4019 1758 3928 
Q 1719 3838 1719 3475 
L 1719 1400 
Q 1719 831 1805 647 
Q 1891 463 2087 341 
Q 2284 219 2584 219 
Q 2928 219 3170 373 
Q 3413 528 3533 800 
Q 3653 1072 3653 1747 
L 3653 3475 
Q 3653 3759 3593 3881 
Q 3534 4003 3444 4050 
Q 3303 4122 3047 4122 
L 3047 4238 
L 4513 4238 
L 4513 4122 
L 4425 4122 
Q 4247 4122 4128 4050 
Q 4009 3978 3956 3834 
Q 3916 3734 3916 3475 
L 3916 1866 
Q 3916 1119 3817 787 
Q 3719 456 3337 178 
Q 2956 -100 2297 -100 
Q 1747 -100 1447 47 
Q 1038 247 869 559 
Q 700 872 700 1400 
L 700 3475 
Q 700 3841 659 3930 
Q 619 4019 519 4072 
Q 419 4125 150 4122 
L 150 4238 
z
" transform="scale(0.015625)"/>
       <path id="TimesNewRomanPS-BoldMT-43" d="M 4272 4334 
L 4272 2866 
L 4150 2866 
Q 4013 3441 3638 3747 
Q 3263 4053 2788 4053 
Q 2391 4053 2059 3825 
Q 1728 3597 1575 3228 
Q 1378 2756 1378 2178 
Q 1378 1609 1522 1142 
Q 1666 675 1972 436 
Q 2278 197 2766 197 
Q 3166 197 3498 372 
Q 3831 547 4200 975 
L 4200 609 
Q 3844 238 3458 70 
Q 3072 -97 2556 -97 
Q 1878 -97 1351 175 
Q 825 447 539 956 
Q 253 1466 253 2041 
Q 253 2647 570 3190 
Q 888 3734 1427 4034 
Q 1966 4334 2572 4334 
Q 3019 4334 3516 4141 
Q 3803 4028 3881 4028 
Q 3981 4028 4054 4101 
Q 4128 4175 4150 4334 
L 4272 4334 
z
" transform="scale(0.015625)"/>
      </defs>
      <use xlink:href="#TimesNewRomanPS-BoldMT-54"/>
      <use xlink:href="#TimesNewRomanPS-BoldMT-65" x="57.574219"/>
      <use xlink:href="#TimesNewRomanPS-BoldMT-73" x="101.958984"/>
      <use xlink:href="#TimesNewRomanPS-BoldMT-74" x="140.875"/>
      <use xlink:href="#TimesNewRomanPS-BoldMT-20" x="174.175781"/>
      <use xlink:href="#TimesNewRomanPS-BoldMT-41" x="193.675781"/>
      <use xlink:href="#TimesNewRomanPS-BoldMT-55" x="265.892578"/>
      <use xlink:href="#TimesNewRomanPS-BoldMT-43" x="338.109375"/>
     </g>
    </g>
   </g>
   <g id="line2d_41">
    <path d="M 99.716647 269.546254 
L 191.623394 191.004423 
L 231.205476 143.661708 
L 270.787558 104.881551 
L 323.112224 65.458266 
L 362.694305 201.716967 
L 402.276387 71.274449 
L 454.601053 83.589201 
L 494.183135 150.669731 
" clip-path="url(#pca3fb22539)" style="fill: none"/>
    <defs>
     <path id="mf1e2e1f857" d="M 0 6 
C 1.591219 6 3.117479 5.367802 4.242641 4.242641 
C 5.367802 3.117479 6 1.591219 6 0 
C 6 -1.591219 5.367802 -3.117479 4.242641 -4.242641 
C 3.117479 -5.367802 1.591219 -6 0 -6 
C -1.591219 -6 -3.117479 -5.367802 -4.242641 -4.242641 
C -5.367802 -3.117479 -6 -1.591219 -6 0 
C -6 1.591219 -5.367802 3.117479 -4.242641 4.242641 
C -3.117479 5.367802 -1.591219 6 0 6 
z
" style="stroke: #ffffff; stroke-width: 1.5"/>
    </defs>
    <g clip-path="url(#pca3fb22539)">
     <use xlink:href="#mf1e2e1f857" x="99.716647" y="269.546254" style="fill: #2e86ab; stroke: #ffffff; stroke-width: 1.5"/>
     <use xlink:href="#mf1e2e1f857" x="191.623394" y="191.004423" style="fill: #2e86ab; stroke: #ffffff; stroke-width: 1.5"/>
     <use xlink:href="#mf1e2e1f857" x="231.205476" y="143.661708" style="fill: #2e86ab; stroke: #ffffff; stroke-width: 1.5"/>
     <use xlink:href="#mf1e2e1f857" x="270.787558" y="104.881551" style="fill: #2e86ab; stroke: #ffffff; stroke-width: 1.5"/>
     <use xlink:href="#mf1e2e1f857" x="323.112224" y="65.458266" style="fill: #2e86ab; stroke: #ffffff; stroke-width: 1.5"/>
     <use xlink:href="#mf1e2e1f857" x="362.694305" y="201.716967" style="fill: #2e86ab; stroke: #ffffff; stroke-width: 1.5"/>
     <use xlink:href="#mf1e2e1f857" x="402.276387" y="71.274449" style="fill: #2e86ab; stroke: #ffffff; stroke-width: 1.5"/>
     <use xlink:href="#mf1e2e1f857" x="454.601053" y="83.589201" style="fill: #2e86ab; stroke: #ffffff; stroke-width: 1.5"/>
     <use xlink:href="#mf1e2e1f857" x="494.183135" y="150.669731" style="fill: #2e86ab; stroke: #ffffff; stroke-width: 1.5"/>
    </g>
   </g>
   <g id="line2d_42">
    <path d="M 99.716647 269.546254 
L 103.701157 267.803818 
L 107.685667 265.942617 
L 111.670177 263.955559 
L 115.654687 261.835366 
L 119.639197 259.574623 
L 123.623707 257.165863 
L 127.608217 254.601664 
L 131.592726 251.874784 
L 135.577236 248.978337 
L 139.561746 245.906015 
L 143.546256 242.652367 
L 147.530766 239.213161 
L 151.515276 235.585834 
L 155.499786 231.770059 
L 159.484296 227.768455 
L 163.468806 223.587474 
L 167.453316 219.238504 
L 171.437826 214.739243 
L 175.422336 210.115409 
L 179.406846 205.402853 
L 183.391356 200.650184 
L 187.375866 195.922017 
L 191.360376 191.30299 
L 195.344886 186.720391 
L 199.329396 181.997156 
L 203.313906 177.154046 
L 207.298416 172.219764 
L 211.282926 167.231663 
L 215.267436 162.237579 
L 219.251946 157.29804 
L 223.236456 152.488909 
L 227.220966 147.904563 
L 231.205476 143.661708 
L 235.189986 139.597488 
L 239.174496 135.47314 
L 243.159006 131.314514 
L 247.143516 127.152735 
L 251.128026 123.024837 
L 255.112536 118.974412 
L 259.097046 115.052282 
L 263.081556 111.317136 
L 267.066066 107.836131 
L 271.050576 104.684146 
L 275.035086 101.606778 
L 279.019596 98.371523 
L 283.004106 94.990327 
L 286.988616 91.482685 
L 290.973126 87.877934 
L 294.957636 84.218138 
L 298.942146 80.561729 
L 302.926656 76.988072 
L 306.911166 73.603202 
L 310.895676 70.546996 
L 314.880186 68.002152 
L 318.864695 66.205388 
L 322.849205 65.461433 
L 326.833715 67.228708 
L 330.818225 73.1687 
L 334.802735 83.36047 
L 338.787245 97.654267 
L 342.771755 115.581372 
L 346.756265 136.229082 
L 350.740775 158.078398 
L 354.725285 178.794456 
L 358.709795 194.957238 
L 362.694305 201.716967 
L 366.678815 199.771702 
L 370.663325 193.816817 
L 374.647835 183.793639 
L 378.632345 169.862588 
L 382.616855 152.496396 
L 386.601365 132.601889 
L 390.585875 111.678044 
L 394.570385 92.019985 
L 398.554895 76.981043 
L 402.539405 71.274627 
L 406.523915 71.323598 
L 410.508425 71.469007 
L 414.492935 71.725607 
L 418.477445 72.10895 
L 422.461955 72.635079 
L 426.446465 73.320056 
L 430.430975 74.179291 
L 434.415485 75.226594 
L 438.399995 76.472891 
L 442.384505 77.924487 
L 446.369015 79.580747 
L 450.353525 81.431059 
L 454.338035 83.450842 
L 458.322545 85.817105 
L 462.307055 88.850396 
L 466.291565 92.65027 
L 470.276075 97.324315 
L 474.260585 102.988777 
L 478.245095 109.767701 
L 482.229605 117.791411 
L 486.214115 127.194115 
L 490.198625 138.110321 
L 494.183135 150.669731 
" clip-path="url(#pca3fb22539)" style="fill: none; stroke: #2e86ab; stroke-opacity: 0.8; stroke-width: 2.5; stroke-linecap: square"/>
   </g>
   <g id="line2d_43">
    <path d="M 323.112224 306.937332 
L 323.112224 28.067187 
" clip-path="url(#pca3fb22539)" style="fill: none; stroke-dasharray: 5.55,2.4; stroke-dashoffset: 0; stroke: #2e86ab; stroke-opacity: 0.7; stroke-width: 1.5"/>
   </g>
   <g id="line2d_44">
    <path d="M 323.112224 65.458266 
" clip-path="url(#pca3fb22539)" style="fill: none; stroke: #2e86ab; stroke-width: 1.5; stroke-linecap: square"/>
    <defs>
     <path id="m463389433c" d="M -0 7.071068 
L 7.071068 0 
L 0 -7.071068 
L -7.071068 -0 
z
" style="stroke: #2e86ab; stroke-width: 2; stroke-linejoin: miter"/>
    </defs>
    <g clip-path="url(#pca3fb22539)">
     <use xlink:href="#m463389433c" x="323.112224" y="65.458266" style="fill: #ffffff; stroke: #2e86ab; stroke-width: 2; stroke-linejoin: miter"/>
    </g>
   </g>
   <g id="patch_3">
    <path d="M 86.974063 306.937332 
L 86.974063 28.067187 
" style="fill: none; stroke: #000000; stroke-width: 1.2; stroke-linejoin: miter; stroke-linecap: square"/>
   </g>
   <g id="patch_4">
    <path d="M 86.974063 306.937332 
L 504.594584 306.937332 
" style="fill: none; stroke: #000000; stroke-width: 1.2; stroke-linejoin: miter; stroke-linecap: square"/>
   </g>
   <g id="text_12">
    <!-- Assay -->
    <g transform="translate(268.277448 22.067187)scale(0.22 -0.22)">
     <defs>
      <path id="TimesNewRomanPS-BoldMT-79" d="M 1556 -119 
L 613 2047 
Q 400 2538 298 2650 
Q 197 2763 53 2806 
L 53 2922 
L 1606 2922 
L 1606 2806 
Q 1453 2800 1390 2747 
Q 1328 2694 1328 2619 
Q 1328 2500 1484 2150 
L 1984 1006 
L 2325 1891 
Q 2509 2363 2509 2547 
Q 2509 2663 2432 2731 
Q 2356 2800 2163 2806 
L 2163 2922 
L 3141 2922 
L 3141 2806 
Q 2997 2791 2906 2695 
Q 2816 2600 2603 2047 
L 1769 -119 
Q 1453 -931 1300 -1119 
Q 1084 -1381 759 -1381 
Q 500 -1381 339 -1232 
Q 178 -1084 178 -875 
Q 178 -694 289 -575 
Q 400 -456 563 -456 
Q 719 -456 814 -556 
Q 909 -656 913 -866 
Q 916 -984 941 -1019 
Q 966 -1053 1013 -1053 
Q 1088 -1053 1172 -963 
Q 1297 -831 1466 -363 
L 1556 -119 
z
" transform="scale(0.015625)"/>
     </defs>
     <use xlink:href="#TimesNewRomanPS-BoldMT-41"/>
     <use xlink:href="#TimesNewRomanPS-BoldMT-73" x="72.216797"/>
     <use xlink:href="#TimesNewRomanPS-BoldMT-73" x="111.132812"/>
     <use xlink:href="#TimesNewRomanPS-BoldMT-61" x="150.048828"/>
     <use xlink:href="#TimesNewRomanPS-BoldMT-79" x="200.048828"/>
    </g>
   </g>
   <g id="legend_1">
    <g id="patch_5">
     <path d="M 97.374063 90.567812 
L 205.441563 90.567812 
Q 207.841563 90.567812 207.841563 88.167812 
L 207.841563 38.467187 
Q 207.841563 36.067187 205.441563 36.067187 
L 97.374063 36.067187 
Q 94.974063 36.067187 94.974063 38.467187 
L 94.974063 88.167812 
Q 94.974063 90.567812 97.374063 90.567812 
z
" style="fill: #4c4c4c; opacity: 0.5; stroke: #4c4c4c; stroke-linejoin: miter"/>
    </g>
    <g id="patch_6">
     <path d="M 95.374063 88.567812 
L 203.441563 88.567812 
Q 205.841563 88.567812 205.841563 86.167812 
L 205.841563 36.467187 
Q 205.841563 34.067187 203.441563 34.067187 
L 95.374063 34.067187 
Q 92.974063 34.067187 92.974063 36.467187 
L 92.974063 86.167812 
Q 92.974063 88.567812 95.374063 88.567812 
z
" style="fill: #ffffff; stroke: #cccccc; stroke-linejoin: miter"/>
    </g>
    <g id="line2d_45">
     <path d="M 97.774062 43.067187 
L 109.774062 43.067187 
L 121.774062 43.067187 
" style="fill: none"/>
     <g>
      <use xlink:href="#mf1e2e1f857" x="109.774062" y="43.067187" style="fill: #2e86ab; stroke: #ffffff; stroke-width: 1.5"/>
     </g>
    </g>
    <g id="text_13">
     <!-- Data Points -->
     <g transform="translate(131.374063 47.267187)scale(0.12 -0.12)">
      <defs>
       <path id="TimesNewRomanPSMT-44" d="M 109 0 
L 109 116 
L 269 116 
Q 538 116 650 288 
Q 719 391 719 750 
L 719 3488 
Q 719 3884 631 3984 
Q 509 4122 269 4122 
L 109 4122 
L 109 4238 
L 1834 4238 
Q 2784 4238 3279 4022 
Q 3775 3806 4076 3303 
Q 4378 2800 4378 2141 
Q 4378 1256 3841 663 
Q 3238 0 2003 0 
L 109 0 
z
M 1319 306 
Q 1716 219 1984 219 
Q 2709 219 3187 728 
Q 3666 1238 3666 2109 
Q 3666 2988 3187 3494 
Q 2709 4000 1959 4000 
Q 1678 4000 1319 3909 
L 1319 306 
z
" transform="scale(0.015625)"/>
       <path id="TimesNewRomanPSMT-61" d="M 1822 413 
Q 1381 72 1269 19 
Q 1100 -59 909 -59 
Q 613 -59 420 144 
Q 228 347 228 678 
Q 228 888 322 1041 
Q 450 1253 767 1440 
Q 1084 1628 1822 1897 
L 1822 2009 
Q 1822 2438 1686 2597 
Q 1550 2756 1291 2756 
Q 1094 2756 978 2650 
Q 859 2544 859 2406 
L 866 2225 
Q 866 2081 792 2003 
Q 719 1925 600 1925 
Q 484 1925 411 2006 
Q 338 2088 338 2228 
Q 338 2497 613 2722 
Q 888 2947 1384 2947 
Q 1766 2947 2009 2819 
Q 2194 2722 2281 2516 
Q 2338 2381 2338 1966 
L 2338 994 
Q 2338 584 2353 492 
Q 2369 400 2405 369 
Q 2441 338 2488 338 
Q 2538 338 2575 359 
Q 2641 400 2828 588 
L 2828 413 
Q 2478 -56 2159 -56 
Q 2006 -56 1915 50 
Q 1825 156 1822 413 
z
M 1822 616 
L 1822 1706 
Q 1350 1519 1213 1441 
Q 966 1303 859 1153 
Q 753 1003 753 825 
Q 753 600 887 451 
Q 1022 303 1197 303 
Q 1434 303 1822 616 
z
" transform="scale(0.015625)"/>
       <path id="TimesNewRomanPSMT-74" d="M 1031 3803 
L 1031 2863 
L 1700 2863 
L 1700 2644 
L 1031 2644 
L 1031 788 
Q 1031 509 1111 412 
Q 1191 316 1316 316 
Q 1419 316 1516 380 
Q 1613 444 1666 569 
L 1788 569 
Q 1678 263 1478 108 
Q 1278 -47 1066 -47 
Q 922 -47 784 33 
Q 647 113 581 261 
Q 516 409 516 719 
L 516 2644 
L 63 2644 
L 63 2747 
Q 234 2816 414 2980 
Q 594 3144 734 3369 
Q 806 3488 934 3803 
L 1031 3803 
z
" transform="scale(0.015625)"/>
       <path id="TimesNewRomanPSMT-20" transform="scale(0.015625)"/>
       <path id="TimesNewRomanPSMT-50" d="M 1313 1984 
L 1313 750 
Q 1313 350 1400 253 
Q 1519 116 1759 116 
L 1922 116 
L 1922 0 
L 106 0 
L 106 116 
L 266 116 
Q 534 116 650 291 
Q 713 388 713 750 
L 713 3488 
Q 713 3888 628 3984 
Q 506 4122 266 4122 
L 106 4122 
L 106 4238 
L 1659 4238 
Q 2228 4238 2556 4120 
Q 2884 4003 3109 3725 
Q 3334 3447 3334 3066 
Q 3334 2547 2992 2222 
Q 2650 1897 2025 1897 
Q 1872 1897 1694 1919 
Q 1516 1941 1313 1984 
z
M 1313 2163 
Q 1478 2131 1606 2115 
Q 1734 2100 1825 2100 
Q 2150 2100 2386 2351 
Q 2622 2603 2622 3003 
Q 2622 3278 2509 3514 
Q 2397 3750 2190 3867 
Q 1984 3984 1722 3984 
Q 1563 3984 1313 3925 
L 1313 2163 
z
" transform="scale(0.015625)"/>
       <path id="TimesNewRomanPSMT-6f" d="M 1600 2947 
Q 2250 2947 2644 2453 
Q 2978 2031 2978 1484 
Q 2978 1100 2793 706 
Q 2609 313 2286 112 
Q 1963 -88 1566 -88 
Q 919 -88 538 428 
Q 216 863 216 1403 
Q 216 1797 411 2186 
Q 606 2575 925 2761 
Q 1244 2947 1600 2947 
z
M 1503 2744 
Q 1338 2744 1170 2645 
Q 1003 2547 900 2300 
Q 797 2053 797 1666 
Q 797 1041 1045 587 
Q 1294 134 1700 134 
Q 2003 134 2200 384 
Q 2397 634 2397 1244 
Q 2397 2006 2069 2444 
Q 1847 2744 1503 2744 
z
" transform="scale(0.015625)"/>
       <path id="TimesNewRomanPSMT-69" d="M 928 4444 
Q 1059 4444 1151 4351 
Q 1244 4259 1244 4128 
Q 1244 3997 1151 3903 
Q 1059 3809 928 3809 
Q 797 3809 703 3903 
Q 609 3997 609 4128 
Q 609 4259 701 4351 
Q 794 4444 928 4444 
z
M 1188 2947 
L 1188 647 
Q 1188 378 1227 289 
Q 1266 200 1342 156 
Q 1419 113 1622 113 
L 1622 0 
L 231 0 
L 231 113 
Q 441 113 512 153 
Q 584 194 626 287 
Q 669 381 669 647 
L 669 1750 
Q 669 2216 641 2353 
Q 619 2453 572 2492 
Q 525 2531 444 2531 
Q 356 2531 231 2484 
L 188 2597 
L 1050 2947 
L 1188 2947 
z
" transform="scale(0.015625)"/>
       <path id="TimesNewRomanPSMT-6e" d="M 1034 2341 
Q 1538 2947 1994 2947 
Q 2228 2947 2397 2830 
Q 2566 2713 2666 2444 
Q 2734 2256 2734 1869 
L 2734 647 
Q 2734 375 2778 278 
Q 2813 200 2889 156 
Q 2966 113 3172 113 
L 3172 0 
L 1756 0 
L 1756 113 
L 1816 113 
Q 2016 113 2095 173 
Q 2175 234 2206 353 
Q 2219 400 2219 647 
L 2219 1819 
Q 2219 2209 2117 2386 
Q 2016 2563 1775 2563 
Q 1403 2563 1034 2156 
L 1034 647 
Q 1034 356 1069 288 
Q 1113 197 1189 155 
Q 1266 113 1500 113 
L 1500 0 
L 84 0 
L 84 113 
L 147 113 
Q 366 113 442 223 
Q 519 334 519 647 
L 519 1709 
Q 519 2225 495 2337 
Q 472 2450 423 2490 
Q 375 2531 294 2531 
Q 206 2531 84 2484 
L 38 2597 
L 900 2947 
L 1034 2947 
L 1034 2341 
z
" transform="scale(0.015625)"/>
       <path id="TimesNewRomanPSMT-73" d="M 2050 2947 
L 2050 1972 
L 1947 1972 
Q 1828 2431 1642 2597 
Q 1456 2763 1169 2763 
Q 950 2763 815 2647 
Q 681 2531 681 2391 
Q 681 2216 781 2091 
Q 878 1963 1175 1819 
L 1631 1597 
Q 2266 1288 2266 781 
Q 2266 391 1970 151 
Q 1675 -88 1309 -88 
Q 1047 -88 709 6 
Q 606 38 541 38 
Q 469 38 428 -44 
L 325 -44 
L 325 978 
L 428 978 
Q 516 541 762 319 
Q 1009 97 1316 97 
Q 1531 97 1667 223 
Q 1803 350 1803 528 
Q 1803 744 1651 891 
Q 1500 1038 1047 1263 
Q 594 1488 453 1669 
Q 313 1847 313 2119 
Q 313 2472 555 2709 
Q 797 2947 1181 2947 
Q 1350 2947 1591 2875 
Q 1750 2828 1803 2828 
Q 1853 2828 1881 2850 
Q 1909 2872 1947 2947 
L 2050 2947 
z
" transform="scale(0.015625)"/>
      </defs>
      <use xlink:href="#TimesNewRomanPSMT-44"/>
      <use xlink:href="#TimesNewRomanPSMT-61" x="72.216797"/>
      <use xlink:href="#TimesNewRomanPSMT-74" x="116.601562"/>
      <use xlink:href="#TimesNewRomanPSMT-61" x="144.384766"/>
      <use xlink:href="#TimesNewRomanPSMT-20" x="188.769531"/>
      <use xlink:href="#TimesNewRomanPSMT-50" x="213.769531"/>
      <use xlink:href="#TimesNewRomanPSMT-6f" x="269.384766"/>
      <use xlink:href="#TimesNewRomanPSMT-69" x="319.384766"/>
      <use xlink:href="#TimesNewRomanPSMT-6e" x="347.167969"/>
      <use xlink:href="#TimesNewRomanPSMT-74" x="397.167969"/>
      <use xlink:href="#TimesNewRomanPSMT-73" x="424.951172"/>
     </g>
    </g>
    <g id="line2d_46">
     <path d="M 97.774062 60.034062 
L 109.774062 60.034062 
L 121.774062 60.034062 
" style="fill: none; stroke: #2e86ab; stroke-opacity: 0.8; stroke-width: 2.5; stroke-linecap: square"/>
    </g>
    <g id="text_14">
     <!-- Smooth Curve -->
     <g transform="translate(131.374063 64.234062)scale(0.12 -0.12)">
      <defs>
       <path id="TimesNewRomanPSMT-53" d="M 2934 4334 
L 2934 2869 
L 2819 2869 
Q 2763 3291 2617 3541 
Q 2472 3791 2203 3937 
Q 1934 4084 1647 4084 
Q 1322 4084 1109 3886 
Q 897 3688 897 3434 
Q 897 3241 1031 3081 
Q 1225 2847 1953 2456 
Q 2547 2138 2764 1967 
Q 2981 1797 3098 1565 
Q 3216 1334 3216 1081 
Q 3216 600 2842 251 
Q 2469 -97 1881 -97 
Q 1697 -97 1534 -69 
Q 1438 -53 1133 45 
Q 828 144 747 144 
Q 669 144 623 97 
Q 578 50 556 -97 
L 441 -97 
L 441 1356 
L 556 1356 
Q 638 900 775 673 
Q 913 447 1195 297 
Q 1478 147 1816 147 
Q 2206 147 2432 353 
Q 2659 559 2659 841 
Q 2659 997 2573 1156 
Q 2488 1316 2306 1453 
Q 2184 1547 1640 1851 
Q 1097 2156 867 2337 
Q 638 2519 519 2737 
Q 400 2956 400 3219 
Q 400 3675 750 4004 
Q 1100 4334 1641 4334 
Q 1978 4334 2356 4169 
Q 2531 4091 2603 4091 
Q 2684 4091 2736 4139 
Q 2788 4188 2819 4334 
L 2934 4334 
z
" transform="scale(0.015625)"/>
       <path id="TimesNewRomanPSMT-6d" d="M 1050 2338 
Q 1363 2650 1419 2697 
Q 1559 2816 1721 2881 
Q 1884 2947 2044 2947 
Q 2313 2947 2506 2790 
Q 2700 2634 2766 2338 
Q 3088 2713 3309 2830 
Q 3531 2947 3766 2947 
Q 3994 2947 4170 2830 
Q 4347 2713 4450 2447 
Q 4519 2266 4519 1878 
L 4519 647 
Q 4519 378 4559 278 
Q 4591 209 4675 161 
Q 4759 113 4950 113 
L 4950 0 
L 3538 0 
L 3538 113 
L 3597 113 
Q 3781 113 3884 184 
Q 3956 234 3988 344 
Q 4000 397 4000 647 
L 4000 1878 
Q 4000 2228 3916 2372 
Q 3794 2572 3525 2572 
Q 3359 2572 3192 2489 
Q 3025 2406 2788 2181 
L 2781 2147 
L 2788 2013 
L 2788 647 
Q 2788 353 2820 281 
Q 2853 209 2943 161 
Q 3034 113 3253 113 
L 3253 0 
L 1806 0 
L 1806 113 
Q 2044 113 2133 169 
Q 2222 225 2256 338 
Q 2272 391 2272 647 
L 2272 1878 
Q 2272 2228 2169 2381 
Q 2031 2581 1784 2581 
Q 1616 2581 1450 2491 
Q 1191 2353 1050 2181 
L 1050 647 
Q 1050 366 1089 281 
Q 1128 197 1204 155 
Q 1281 113 1516 113 
L 1516 0 
L 100 0 
L 100 113 
Q 297 113 375 155 
Q 453 197 493 289 
Q 534 381 534 647 
L 534 1741 
Q 534 2213 506 2350 
Q 484 2453 437 2492 
Q 391 2531 309 2531 
Q 222 2531 100 2484 
L 53 2597 
L 916 2947 
L 1050 2947 
L 1050 2338 
z
" transform="scale(0.015625)"/>
       <path id="TimesNewRomanPSMT-68" d="M 1041 4444 
L 1041 2350 
Q 1388 2731 1591 2839 
Q 1794 2947 1997 2947 
Q 2241 2947 2416 2812 
Q 2591 2678 2675 2391 
Q 2734 2191 2734 1659 
L 2734 647 
Q 2734 375 2778 275 
Q 2809 200 2884 156 
Q 2959 113 3159 113 
L 3159 0 
L 1753 0 
L 1753 113 
L 1819 113 
Q 2019 113 2097 173 
Q 2175 234 2206 353 
Q 2216 403 2216 647 
L 2216 1659 
Q 2216 2128 2167 2275 
Q 2119 2422 2012 2495 
Q 1906 2569 1756 2569 
Q 1603 2569 1437 2487 
Q 1272 2406 1041 2159 
L 1041 647 
Q 1041 353 1073 281 
Q 1106 209 1195 161 
Q 1284 113 1503 113 
L 1503 0 
L 84 0 
L 84 113 
Q 275 113 384 172 
Q 447 203 484 290 
Q 522 378 522 647 
L 522 3238 
Q 522 3728 498 3840 
Q 475 3953 426 3993 
Q 378 4034 297 4034 
Q 231 4034 84 3984 
L 41 4094 
L 897 4444 
L 1041 4444 
z
" transform="scale(0.015625)"/>
       <path id="TimesNewRomanPSMT-43" d="M 3853 4334 
L 3950 2894 
L 3853 2894 
Q 3659 3541 3300 3825 
Q 2941 4109 2438 4109 
Q 2016 4109 1675 3895 
Q 1334 3681 1139 3212 
Q 944 2744 944 2047 
Q 944 1472 1128 1050 
Q 1313 628 1683 403 
Q 2053 178 2528 178 
Q 2941 178 3256 354 
Q 3572 531 3950 1056 
L 4047 994 
Q 3728 428 3303 165 
Q 2878 -97 2294 -97 
Q 1241 -97 663 684 
Q 231 1266 231 2053 
Q 231 2688 515 3219 
Q 800 3750 1298 4042 
Q 1797 4334 2388 4334 
Q 2847 4334 3294 4109 
Q 3425 4041 3481 4041 
Q 3566 4041 3628 4100 
Q 3709 4184 3744 4334 
L 3853 4334 
z
" transform="scale(0.015625)"/>
       <path id="TimesNewRomanPSMT-75" d="M 2709 2863 
L 2709 1128 
Q 2709 631 2732 520 
Q 2756 409 2807 365 
Q 2859 322 2928 322 
Q 3025 322 3147 375 
L 3191 266 
L 2334 -88 
L 2194 -88 
L 2194 519 
Q 1825 119 1631 15 
Q 1438 -88 1222 -88 
Q 981 -88 804 51 
Q 628 191 559 409 
Q 491 628 491 1028 
L 491 2306 
Q 491 2509 447 2587 
Q 403 2666 317 2708 
Q 231 2750 6 2747 
L 6 2863 
L 1009 2863 
L 1009 947 
Q 1009 547 1148 422 
Q 1288 297 1484 297 
Q 1619 297 1789 381 
Q 1959 466 2194 703 
L 2194 2325 
Q 2194 2569 2105 2655 
Q 2016 2741 1734 2747 
L 1734 2863 
L 2709 2863 
z
" transform="scale(0.015625)"/>
       <path id="TimesNewRomanPSMT-72" d="M 1038 2947 
L 1038 2303 
Q 1397 2947 1775 2947 
Q 1947 2947 2059 2842 
Q 2172 2738 2172 2600 
Q 2172 2478 2090 2393 
Q 2009 2309 1897 2309 
Q 1788 2309 1652 2417 
Q 1516 2525 1450 2525 
Q 1394 2525 1328 2463 
Q 1188 2334 1038 2041 
L 1038 669 
Q 1038 431 1097 309 
Q 1138 225 1241 169 
Q 1344 113 1538 113 
L 1538 0 
L 72 0 
L 72 113 
Q 291 113 397 181 
Q 475 231 506 341 
Q 522 394 522 644 
L 522 1753 
Q 522 2253 501 2348 
Q 481 2444 426 2487 
Q 372 2531 291 2531 
Q 194 2531 72 2484 
L 41 2597 
L 906 2947 
L 1038 2947 
z
" transform="scale(0.015625)"/>
       <path id="TimesNewRomanPSMT-76" d="M 53 2863 
L 1400 2863 
L 1400 2747 
L 1313 2747 
Q 1191 2747 1127 2687 
Q 1063 2628 1063 2528 
Q 1063 2419 1128 2269 
L 1794 688 
L 2463 2328 
Q 2534 2503 2534 2594 
Q 2534 2638 2509 2666 
Q 2475 2713 2422 2730 
Q 2369 2747 2206 2747 
L 2206 2863 
L 3141 2863 
L 3141 2747 
Q 2978 2734 2916 2681 
Q 2806 2588 2719 2369 
L 1703 -88 
L 1575 -88 
L 553 2328 
Q 484 2497 421 2570 
Q 359 2644 263 2694 
Q 209 2722 53 2747 
L 53 2863 
z
" transform="scale(0.015625)"/>
       <path id="TimesNewRomanPSMT-65" d="M 681 1784 
Q 678 1147 991 784 
Q 1303 422 1725 422 
Q 2006 422 2214 576 
Q 2422 731 2563 1106 
L 2659 1044 
Q 2594 616 2278 264 
Q 1963 -88 1488 -88 
Q 972 -88 605 314 
Q 238 716 238 1394 
Q 238 2128 614 2539 
Q 991 2950 1559 2950 
Q 2041 2950 2350 2633 
Q 2659 2316 2659 1784 
L 681 1784 
z
M 681 1966 
L 2006 1966 
Q 1991 2241 1941 2353 
Q 1863 2528 1708 2628 
Q 1553 2728 1384 2728 
Q 1125 2728 920 2526 
Q 716 2325 681 1966 
z
" transform="scale(0.015625)"/>
      </defs>
      <use xlink:href="#TimesNewRomanPSMT-53"/>
      <use xlink:href="#TimesNewRomanPSMT-6d" x="55.615234"/>
      <use xlink:href="#TimesNewRomanPSMT-6f" x="133.398438"/>
      <use xlink:href="#TimesNewRomanPSMT-6f" x="183.398438"/>
      <use xlink:href="#TimesNewRomanPSMT-74" x="233.398438"/>
      <use xlink:href="#TimesNewRomanPSMT-68" x="261.181641"/>
      <use xlink:href="#TimesNewRomanPSMT-20" x="311.181641"/>
      <use xlink:href="#TimesNewRomanPSMT-43" x="336.181641"/>
      <use xlink:href="#TimesNewRomanPSMT-75" x="402.880859"/>
      <use xlink:href="#TimesNewRomanPSMT-72" x="452.880859"/>
      <use xlink:href="#TimesNewRomanPSMT-76" x="486.181641"/>
      <use xlink:href="#TimesNewRomanPSMT-65" x="536.181641"/>
     </g>
    </g>
    <g id="line2d_47">
     <path d="M 97.774062 77.000937 
L 109.774062 77.000937 
L 121.774062 77.000937 
" style="fill: none; stroke-dasharray: 5.55,2.4; stroke-dashoffset: 0; stroke: #2e86ab; stroke-opacity: 0.7; stroke-width: 1.5"/>
    </g>
    <g id="text_15">
     <!-- Best  -->
     <g transform="translate(131.374063 81.200937)scale(0.12 -0.12)">
      <defs>
       <path id="TimesNewRomanPSMT-42" d="M 2956 2163 
Q 3397 2069 3616 1863 
Q 3919 1575 3919 1159 
Q 3919 844 3719 555 
Q 3519 266 3170 133 
Q 2822 0 2106 0 
L 106 0 
L 106 116 
L 266 116 
Q 531 116 647 284 
Q 719 394 719 750 
L 719 3488 
Q 719 3881 628 3984 
Q 506 4122 266 4122 
L 106 4122 
L 106 4238 
L 1938 4238 
Q 2450 4238 2759 4163 
Q 3228 4050 3475 3764 
Q 3722 3478 3722 3106 
Q 3722 2788 3528 2536 
Q 3334 2284 2956 2163 
z
M 1319 2331 
Q 1434 2309 1582 2298 
Q 1731 2288 1909 2288 
Q 2366 2288 2595 2386 
Q 2825 2484 2947 2687 
Q 3069 2891 3069 3131 
Q 3069 3503 2766 3765 
Q 2463 4028 1881 4028 
Q 1569 4028 1319 3959 
L 1319 2331 
z
M 1319 306 
Q 1681 222 2034 222 
Q 2600 222 2897 476 
Q 3194 731 3194 1106 
Q 3194 1353 3059 1581 
Q 2925 1809 2622 1940 
Q 2319 2072 1872 2072 
Q 1678 2072 1540 2065 
Q 1403 2059 1319 2044 
L 1319 306 
z
" transform="scale(0.015625)"/>
       <path id="TimesNewRomanPSMT-3b2" d="M 859 -1369 
L 344 -1369 
Q 456 -841 456 -413 
L 456 2991 
Q 456 3522 551 3781 
Q 647 4041 923 4239 
Q 1200 4438 1616 4438 
Q 2109 4438 2445 4177 
Q 2781 3916 2781 3434 
Q 2781 2872 2247 2513 
Q 3044 2138 3044 1334 
Q 3044 897 2833 551 
Q 2622 206 2345 59 
Q 2069 -88 1684 -88 
Q 1247 -88 972 241 
L 972 -341 
Q 972 -941 859 -1369 
z
M 972 522 
Q 1216 119 1653 119 
Q 2075 119 2272 426 
Q 2469 734 2469 1175 
Q 2469 1513 2339 1864 
Q 2209 2216 2006 2400 
Q 1819 2353 1669 2353 
Q 1353 2353 1353 2519 
Q 1353 2669 1619 2669 
Q 1784 2669 2031 2594 
Q 2253 2969 2253 3409 
Q 2253 3803 2079 4012 
Q 1906 4222 1628 4222 
Q 1406 4222 1248 4097 
Q 1091 3972 1031 3798 
Q 972 3625 972 3231 
L 972 522 
z
" transform="scale(0.015625)"/>
      </defs>
      <use xlink:href="#TimesNewRomanPSMT-42"/>
      <use xlink:href="#TimesNewRomanPSMT-65" x="66.699219"/>
      <use xlink:href="#TimesNewRomanPSMT-73" x="111.083984"/>
      <use xlink:href="#TimesNewRomanPSMT-74" x="150"/>
      <use xlink:href="#TimesNewRomanPSMT-20" x="177.783203"/>
      <use xlink:href="#TimesNewRomanPSMT-3b2" x="202.783203"/>
     </g>
    </g>
   </g>
  </g>
 </g>
 <defs>
  <clipPath id="pca3fb22539">
   <rect x="86.974063" y="28.067187" width="417.620521" height="278.870145"/>
  </clipPath>
 </defs>
</svg>
